<svg width="111" height="45" viewBox="0 0 111 45" fill="none" xmlns="http://www.w3.org/2000/svg">
<g filter="url(#filter0_d_5_26)">
<path d="M11.2061 7.34766C14.3769 4.89315 18.354 3.71845 22.3496 4.05664C26.3451 4.39486 30.0681 6.22131 32.7812 9.17383C35.366 11.9866 36.8531 15.6264 36.9883 19.4316L28.9961 24.0947L26.2871 25.6748L29.4111 25.9541L35.6143 26.5098C34.1699 29.7526 31.6825 32.4362 28.5283 34.1182C24.9901 36.0048 20.8721 36.4942 16.9902 35.4893C13.1084 34.4843 9.74473 32.058 7.56641 28.6914C5.38833 25.3249 4.55359 21.2632 5.22754 17.3105C5.90155 13.3578 8.03523 9.80213 11.2061 7.34766Z" stroke="url(#paint0_linear_5_26)" stroke-width="2" shape-rendering="crispEdges"/>
</g>
<path d="M50.912 26.716C49.652 26.716 48.566 26.446 47.654 25.906C46.742 25.354 46.04 24.592 45.548 23.62C45.056 22.636 44.81 21.502 44.81 20.218C44.81 18.934 45.056 17.8 45.548 16.816C46.04 15.832 46.742 15.064 47.654 14.512C48.566 13.96 49.652 13.684 50.912 13.684C52.436 13.684 53.684 14.062 54.656 14.818C55.64 15.574 56.252 16.642 56.492 18.022H53.81C53.666 17.35 53.342 16.828 52.838 16.456C52.346 16.072 51.698 15.88 50.894 15.88C50.138 15.88 49.49 16.06 48.95 16.42C48.41 16.768 47.996 17.266 47.708 17.914C47.432 18.55 47.294 19.318 47.294 20.218C47.294 21.106 47.432 21.874 47.708 22.522C47.996 23.17 48.41 23.668 48.95 24.016C49.49 24.364 50.138 24.538 50.894 24.538C51.698 24.538 52.346 24.364 52.838 24.016C53.33 23.656 53.654 23.158 53.81 22.522H56.492C56.252 23.83 55.64 24.856 54.656 25.6C53.684 26.344 52.436 26.716 50.912 26.716ZM62.7786 26.716C61.9146 26.716 61.1346 26.518 60.4386 26.122C59.7546 25.714 59.2086 25.156 58.8006 24.448C58.4046 23.74 58.2066 22.924 58.2066 22C58.2066 21.064 58.4046 20.242 58.8006 19.534C59.2086 18.826 59.7606 18.274 60.4566 17.878C61.1526 17.47 61.9326 17.266 62.7966 17.266C63.6606 17.266 64.4406 17.47 65.1366 17.878C65.8326 18.274 66.3786 18.826 66.7746 19.534C67.1826 20.242 67.3866 21.064 67.3866 22C67.3866 22.924 67.1826 23.74 66.7746 24.448C66.3666 25.156 65.8146 25.714 65.1186 26.122C64.4346 26.518 63.6546 26.716 62.7786 26.716ZM62.7786 24.61C63.1746 24.61 63.5286 24.514 63.8406 24.322C64.1646 24.13 64.4226 23.842 64.6146 23.458C64.8066 23.062 64.9026 22.576 64.9026 22C64.9026 21.412 64.8066 20.926 64.6146 20.542C64.4346 20.158 64.1826 19.87 63.8586 19.678C63.5466 19.474 63.1926 19.372 62.7966 19.372C62.4126 19.372 62.0586 19.474 61.7346 19.678C61.4106 19.87 61.1526 20.158 60.9606 20.542C60.7686 20.926 60.6726 21.412 60.6726 22C60.6726 22.576 60.7686 23.062 60.9606 23.458C61.1526 23.842 61.4046 24.13 61.7166 24.322C62.0406 24.514 62.3946 24.61 62.7786 24.61ZM73.7474 26.716C72.8834 26.716 72.1034 26.518 71.4074 26.122C70.7234 25.714 70.1774 25.156 69.7694 24.448C69.3734 23.74 69.1754 22.924 69.1754 22C69.1754 21.064 69.3734 20.242 69.7694 19.534C70.1774 18.826 70.7294 18.274 71.4254 17.878C72.1214 17.47 72.9014 17.266 73.7654 17.266C74.6294 17.266 75.4094 17.47 76.1054 17.878C76.8014 18.274 77.3474 18.826 77.7434 19.534C78.1514 20.242 78.3554 21.064 78.3554 22C78.3554 22.924 78.1514 23.74 77.7434 24.448C77.3354 25.156 76.7834 25.714 76.0874 26.122C75.4034 26.518 74.6234 26.716 73.7474 26.716ZM73.7474 24.61C74.1434 24.61 74.4974 24.514 74.8094 24.322C75.1334 24.13 75.3914 23.842 75.5834 23.458C75.7754 23.062 75.8714 22.576 75.8714 22C75.8714 21.412 75.7754 20.926 75.5834 20.542C75.4034 20.158 75.1514 19.87 74.8274 19.678C74.5154 19.474 74.1614 19.372 73.7654 19.372C73.3814 19.372 73.0274 19.474 72.7034 19.678C72.3794 19.87 72.1214 20.158 71.9294 20.542C71.7374 20.926 71.6414 21.412 71.6414 22C71.6414 22.576 71.7374 23.062 71.9294 23.458C72.1214 23.842 72.3734 24.13 72.6854 24.322C73.0094 24.514 73.3634 24.61 73.7474 24.61ZM80.4321 30.46V17.482H82.5921L82.8441 18.742C83.0361 18.478 83.2641 18.238 83.5281 18.022C83.7921 17.794 84.1101 17.614 84.4821 17.482C84.8541 17.338 85.2861 17.266 85.7781 17.266C86.6301 17.266 87.3801 17.476 88.0281 17.896C88.6761 18.304 89.1861 18.868 89.5581 19.588C89.9421 20.296 90.1341 21.106 90.1341 22.018C90.1341 22.918 89.9421 23.722 89.5581 24.43C89.1741 25.138 88.6581 25.696 88.0101 26.104C87.3621 26.512 86.6181 26.716 85.7781 26.716C85.1181 26.716 84.5421 26.596 84.0501 26.356C83.5581 26.104 83.1621 25.762 82.8621 25.33V30.46H80.4321ZM85.2201 24.592C85.7001 24.592 86.1201 24.484 86.4801 24.268C86.8521 24.052 87.1401 23.752 87.3441 23.368C87.5601 22.972 87.6681 22.516 87.6681 22C87.6681 21.496 87.5601 21.046 87.3441 20.65C87.1401 20.254 86.8521 19.948 86.4801 19.732C86.1201 19.504 85.7001 19.39 85.2201 19.39C84.7521 19.39 84.3321 19.504 83.9601 19.732C83.5881 19.948 83.3001 20.254 83.0961 20.65C82.8921 21.034 82.7901 21.484 82.7901 22C82.7901 22.504 82.8921 22.954 83.0961 23.35C83.3001 23.746 83.5881 24.052 83.9601 24.268C84.3321 24.484 84.7521 24.592 85.2201 24.592ZM92.2811 26.5V17.482H94.7111V26.5H92.2811ZM93.5051 16.222C93.0611 16.222 92.7011 16.096 92.4251 15.844C92.1491 15.58 92.0111 15.25 92.0111 14.854C92.0111 14.458 92.1491 14.134 92.4251 13.882C92.7011 13.618 93.0611 13.486 93.5051 13.486C93.9491 13.486 94.3091 13.618 94.5851 13.882C94.8731 14.134 95.0171 14.458 95.0171 14.854C95.0171 15.25 94.8731 15.58 94.5851 15.844C94.3091 16.096 93.9491 16.222 93.5051 16.222ZM97.1849 26.5V13.9H105.393V15.862H99.6149V19.228H104.259V21.136H99.6149V26.5H97.1849ZM107.187 26.5V17.482H109.617V26.5H107.187ZM108.411 16.222C107.967 16.222 107.607 16.096 107.331 15.844C107.055 15.58 106.917 15.25 106.917 14.854C106.917 14.458 107.055 14.134 107.331 13.882C107.607 13.618 107.967 13.486 108.411 13.486C108.855 13.486 109.215 13.618 109.491 13.882C109.779 14.134 109.923 14.458 109.923 14.854C109.923 15.25 109.779 15.58 109.491 15.844C109.215 16.096 108.855 16.222 108.411 16.222Z" fill="url(#paint1_linear_5_26)"/>
<defs>
<filter id="filter0_d_5_26" x="0" y="2.99997" width="42" height="42.0001" filterUnits="userSpaceOnUse" color-interpolation-filters="sRGB">
<feFlood flood-opacity="0" result="BackgroundImageFix"/>
<feColorMatrix in="SourceAlpha" type="matrix" values="0 0 0 0 0 0 0 0 0 0 0 0 0 0 0 0 0 0 127 0" result="hardAlpha"/>
<feOffset dy="4"/>
<feGaussianBlur stdDeviation="2"/>
<feComposite in2="hardAlpha" operator="out"/>
<feColorMatrix type="matrix" values="0 0 0 0 0 0 0 0 0 0 0 0 0 0 0 0 0 0 0.25 0"/>
<feBlend mode="normal" in2="BackgroundImageFix" result="effect1_dropShadow_5_26"/>
<feBlend mode="normal" in="SourceGraphic" in2="effect1_dropShadow_5_26" result="shape"/>
</filter>
<linearGradient id="paint0_linear_5_26" x1="4" y1="20" x2="38" y2="20" gradientUnits="userSpaceOnUse">
<stop stop-color="#B8FAF6"/>
<stop offset="0.5" stop-color="#88AAF1"/>
<stop offset="1" stop-color="#C9B3F5"/>
</linearGradient>
<linearGradient id="paint1_linear_5_26" x1="44" y1="20" x2="111" y2="20" gradientUnits="userSpaceOnUse">
<stop stop-color="#B8FAF6"/>
<stop offset="0.5" stop-color="#88AAF1"/>
<stop offset="1" stop-color="#C9B3F5"/>
</linearGradient>
</defs>
</svg>
